<?xml version="1.0" encoding="utf-8"?>
<!-- Generator: Adobe Illustrator 18.1.1, SVG Export Plug-In . SVG Version: 6.00 Build 0)  -->
<svg version="1.1" id="Layer_1" xmlns="http://www.w3.org/2000/svg" xmlns:xlink="http://www.w3.org/1999/xlink" x="0px" y="0px"
	 viewBox="0 0 83.9 50.6" style="enable-background:new 0 0 83.9 50.6;" xml:space="preserve">
<style type="text/css">
	.st0{fill:#3E3C30;}
	.st1{fill:#F6EB9E;}
	.st2{fill:#EF463B;}
	.st3{fill:#EFEDD6;}
</style>
<rect x="0" y="0" class="st0" width="83.9" height="50.6"/>
<rect x="1.4" y="1.4" class="st1" width="81.1" height="47.8"/>
<rect x="2.8" y="2.8" class="st2" width="78.4" height="45"/>
<g>
	<g>
		<path class="st0" d="M9.3,12.9l2.8-1.4C10.9,11.7,10,12.2,9.3,12.9z"/>
	</g>
	<g>
		<path class="st0" d="M14.6,11.6c-0.2,0-0.4,0-0.6,0h-0.3l-4.9,2.4c-0.1,0.2-0.1,0.3-0.2,0.5L14.6,11.6z"/>
	</g>
	<g>
		<path class="st0" d="M16.2,11.9c-0.2-0.1-0.4-0.1-0.5-0.2l-7.2,3.5c0,0.1,0,0.3,0,0.5L16.2,11.9z"/>
	</g>
	<g>
		<path class="st0" d="M13.2,14.1h0.7c0.1,0,0.2,0,0.2,0l3.1-1.5c-0.1-0.1-0.2-0.2-0.3-0.3L13.2,14.1z"/>
		<path class="st0" d="M11.3,15.5c0-0.2,0.1-0.4,0.1-0.5l-2.9,1.4v0.4L11.3,15.5z"/>
	</g>
	<g>
		<path class="st0" d="M15.1,14.3c0.1,0.1,0.2,0.2,0.3,0.3l2.5-1.2c-0.1-0.1-0.1-0.2-0.2-0.3L15.1,14.3z"/>
		<polygon class="st0" points="11.2,16.6 11.2,16.2 8.5,17.5 8.5,18 		"/>
	</g>
	<g>
		<path class="st0" d="M15.7,15.2c0,0.1,0.1,0.3,0.1,0.4l2.5-1.2c0-0.1-0.1-0.3-0.1-0.4L15.7,15.2z"/>
		<polygon class="st0" points="11.2,17.8 11.2,17.3 8.5,18.7 8.5,19.1 		"/>
	</g>
	<g>
		<path class="st0" d="M15.7,16.7l2.7-1.3c0-0.1,0-0.3,0-0.4l-2.6,1.3V16.7z"/>
		<path class="st0" d="M23.5,13l3-1.5C25.1,11.7,24.1,12.2,23.5,13z"/>
		<polygon class="st0" points="11.2,18.9 11.2,18.5 8.5,19.8 8.5,20.3 		"/>
	</g>
	<g>
		<polygon class="st0" points="15.7,17.5 15.7,17.9 18.4,16.6 18.4,16.2 		"/>
		<path class="st0" d="M22.8,14.5l6-2.9c-0.2,0-0.4,0-0.7,0H28L23,14C22.9,14.1,22.9,14.3,22.8,14.5z"/>
		<polygon class="st0" points="11.2,20.1 11.2,19.6 8.5,21 8.5,21.4 		"/>
	</g>
	<g>
		<path class="st0" d="M22.7,15.2c0,0.1,0,0.3,0,0.5l7.8-3.8c-0.2-0.1-0.3-0.1-0.5-0.2L22.7,15.2z"/>
		<polygon class="st0" points="11.2,21.2 11.2,20.8 8.5,22.1 8.5,22.6 		"/>
		<polygon class="st0" points="15.7,18.6 15.7,19 18.4,17.7 18.4,17.3 		"/>
	</g>
	<g>
		<polygon class="st0" points="16.7,19.3 17.6,19.3 18.4,18.9 18.4,18.5 		"/>
		<polygon class="st0" points="11.2,22.4 11.2,21.9 8.5,23.3 8.5,23.7 		"/>
	</g>
	<polygon class="st0" points="11.2,23.5 11.2,23.1 8.5,24.4 8.5,24.9 	"/>
	<g>
		<polygon class="st0" points="13.6,23.1 13.6,23.5 14.5,23.1 13.6,23.1 		"/>
		<polygon class="st0" points="11.2,24.7 11.2,24.2 8.5,25.6 8.5,26 		"/>
	</g>
	<g>
		<polygon class="st0" points="39.8,12 40.6,11.7 39.8,11.7 		"/>
		<polygon class="st0" points="13.6,24.3 13.6,24.7 16.9,23.1 16,23.1 		"/>
		<polygon class="st0" points="11.2,25.8 11.2,25.4 8.5,26.7 8.5,27.2 		"/>
	</g>
	<g>
		<polygon class="st0" points="39.7,12.8 39.6,13.3 42.9,11.7 42,11.7 		"/>
		<polygon class="st0" points="18.3,23.1 13.6,25.4 13.6,25.6 14,25.6 18.5,23.5 18.5,23.1 		"/>
		<polygon class="st0" points="11.2,27 11.2,26.5 8.5,27.9 8.5,28.3 		"/>
	</g>
	<g>
		<polygon class="st0" points="15.5,25.6 15.8,25.6 15.8,25.9 18.5,24.6 18.5,24.2 		"/>
		<polygon class="st0" points="39.5,14.1 39.4,14.5 43.5,12.6 43.4,12.1 		"/>
		<polygon class="st0" points="11.2,28.1 11.2,27.7 8.5,29 8.5,29.5 		"/>
	</g>
	<g>
		<polygon class="st0" points="39.3,15.3 39.2,15.8 43.7,13.6 43.6,13.2 		"/>
		<polygon class="st0" points="15.8,26.6 15.8,27.1 18.5,25.8 18.5,25.3 		"/>
		<polygon class="st0" points="11.2,29.3 11.2,28.8 8.5,30.2 8.5,30.6 		"/>
	</g>
	<g>
		<polygon class="st0" points="15.8,27.8 15.8,28.2 18.5,26.9 18.5,26.5 		"/>
		<path class="st0" d="M11.2,30l-2.8,1.3v0.4c0,0,0,0,0,0.1l2.8-1.3V30z"/>
		<polygon class="st0" points="39.1,16.5 39,17 43.8,14.7 43.8,14.3 		"/>
	</g>
	<g>
		<polygon class="st0" points="15.8,28.9 15.8,29.4 18.5,28.1 18.5,27.6 		"/>
		<path class="st0" d="M11.2,31.1l-2.7,1.3c0,0.1,0,0.3,0.1,0.4l2.7-1.3V31.1z"/>
		<polygon class="st0" points="38.9,17.8 38.8,18.3 44,15.8 43.9,15.3 		"/>
		<polygon class="st0" points="50.7,12.1 50.7,12.5 52.3,11.7 51.4,11.7 		"/>
	</g>
	<g>
		<polygon class="st0" points="15.8,30.1 15.8,30.5 18.5,29.2 18.5,28.8 		"/>
		<path class="st0" d="M11.3,32.3l-2.6,1.2c0,0.1,0.1,0.3,0.1,0.4l2.5-1.2C11.3,32.5,11.3,32.4,11.3,32.3z"/>
		<polygon class="st0" points="50.7,13.2 50.7,13.7 53.5,12.3 53.5,11.9 		"/>
		<polygon class="st0" points="38.7,19 38.6,19.5 44.2,16.8 44.1,16.4 		"/>
	</g>
	<g>
		<polygon class="st0" points="53.5,13.5 53.5,13 50.7,14.4 50.7,14.8 		"/>
		<polygon class="st0" points="44.3,17.9 44.3,17.5 38.5,20.3 38.4,20.7 		"/>
		<polygon class="st0" points="15.8,31.7 18.5,30.4 18.5,29.9 15.8,31.2 		"/>
		<path class="st0" d="M12.1,33.5c-0.1-0.1-0.3-0.2-0.4-0.3l-2.6,1.2c0.1,0.1,0.1,0.2,0.2,0.3L12.1,33.5z"/>
	</g>
	<g>
		<polygon class="st0" points="53.5,14.6 53.5,14.2 50.7,15.5 50.7,16 		"/>
		<polygon class="st0" points="44.5,19 44.4,18.6 38.3,21.5 38.2,22 		"/>
		<path class="st0" d="M14.1,33.7C14,33.7,14,33.7,14.1,33.7l-0.9,0l-3.3,1.6c0.1,0.1,0.2,0.2,0.4,0.3L14.1,33.7z"/>
		<path class="st0" d="M15.6,32.9l2.9-1.4v-0.4l-2.8,1.3C15.7,32.6,15.7,32.8,15.6,32.9z"/>
	</g>
	<g>
		<polygon class="st0" points="53.5,15.8 53.5,15.3 50.7,16.7 50.7,17.1 		"/>
		<polygon class="st0" points="61.3,12 61.9,11.7 61.3,11.7 		"/>
		<polygon class="st0" points="44.6,20 44.6,19.6 38.1,22.7 38.1,23.2 		"/>
		<path class="st0" d="M18.4,32.7c0-0.2,0-0.3,0-0.5l-7.6,3.7c0.2,0.1,0.4,0.1,0.6,0.2L18.4,32.7z"/>
	</g>
	<g>
		<polygon class="st0" points="53.5,16.9 53.5,16.5 50.7,17.8 50.7,18.3 		"/>
		<polygon class="st0" points="44.8,21.1 44.7,20.7 37.9,24 37.9,24.5 		"/>
		<polygon class="st0" points="64.2,11.7 63.3,11.7 61.3,12.7 61.3,13.2 		"/>
		<path class="st0" d="M13,36.2h0.6l4.5-2.2c0.1-0.2,0.1-0.3,0.2-0.5l-5.6,2.7C12.8,36.2,12.9,36.2,13,36.2z"/>
	</g>
	<g>
		<polygon class="st0" points="53.5,18.1 53.5,17.6 50.7,19 50.7,19.4 		"/>
		<polygon class="st0" points="61.4,14.3 66.6,11.7 65.7,11.7 61.3,13.9 61.3,14.3 		"/>
		<polygon class="st0" points="45,22.2 44.9,21.8 37.7,25.2 37.7,25.7 		"/>
		<path class="st0" d="M17.4,35l-2.2,1C16.2,35.9,16.9,35.6,17.4,35z"/>
	</g>
	<g>
		<polygon class="st0" points="45.1,23.3 45.1,22.8 37.6,26.5 37.5,26.9 		"/>
		<polygon class="st0" points="69,11.7 68.1,11.7 62.8,14.3 63.8,14.3 		"/>
		<polygon class="st0" points="53.5,19.2 53.5,18.8 50.7,20.1 50.7,20.6 		"/>
	</g>
	<g>
		<polygon class="st0" points="45.3,24.3 45.2,23.9 37.4,27.7 37.3,28.2 		"/>
		<polygon class="st0" points="69.5,12.7 69.5,12.2 65.2,14.3 66.1,14.3 		"/>
		<polygon class="st0" points="53.5,20.4 53.5,19.9 50.7,21.3 50.7,21.7 		"/>
	</g>
	<g>
		<polygon class="st0" points="45.5,25.4 45.4,25 37.2,29 37.1,29.4 		"/>
		<polygon class="st0" points="69.5,13.8 69.5,13.4 66.6,14.8 66.4,15.3 		"/>
		<polygon class="st0" points="53.5,21.5 53.5,21.1 50.7,22.4 50.7,22.9 		"/>
	</g>
	<g>
		<polygon class="st0" points="69.3,15.1 69.4,14.5 66.2,16.1 66,16.6 		"/>
		<polygon class="st0" points="45.6,26.5 45.6,26 37,30.2 36.9,30.7 		"/>
		<path class="st0" d="M32.6,32.7c0-0.2,0-0.3,0-0.5l-7.5,3.6c0.2,0.1,0.4,0.1,0.6,0.2L32.6,32.7z"/>
		<polygon class="st0" points="53.5,22.7 53.5,22.2 50.7,23.6 50.7,24 		"/>
	</g>
	<g>
		<polygon class="st0" points="45.8,27.5 45.7,27.1 36.8,31.4 36.7,31.9 		"/>
		<polygon class="st0" points="68.9,16.4 69,15.9 65.8,17.4 65.6,18 		"/>
		<polygon class="st0" points="53.5,23.8 53.5,23.4 50.7,24.7 50.7,25.2 		"/>
		<path class="st0" d="M27.9,36.2l4.4-2.1c0.1-0.2,0.1-0.4,0.2-0.5L27,36.2c0.1,0,0.1,0,0.2,0H27.9z"/>
	</g>
	<g>
		<polygon class="st0" points="46,28.6 45.9,28.2 36.6,32.7 36.5,33.2 		"/>
		<polygon class="st0" points="68.5,17.7 68.6,17.2 65.4,18.8 65.3,19.3 		"/>
		<polygon class="st0" points="53.5,25 53.5,24.5 50.7,25.9 50.7,26.3 		"/>
		<path class="st0" d="M29.6,36c0.8-0.2,1.4-0.5,1.9-0.9L29.6,36z"/>
	</g>
	<g>
		<polygon class="st0" points="36.4,33.9 36.3,34.4 39.2,33 39.2,32.6 		"/>
		<polygon class="st0" points="40.5,31.9 41.5,31.9 46.1,29.7 46.1,29.3 		"/>
		<polygon class="st0" points="50.7,27 50.7,27.5 53.5,26.1 53.5,25.7 		"/>
		<polygon class="st0" points="65,20.1 64.9,20.6 68.1,19.1 68.2,18.6 		"/>
	</g>
	<g>
		<polygon class="st0" points="36.2,35.2 36.1,35.6 39,34.3 39.1,33.8 		"/>
		<polygon class="st0" points="42.9,31.9 43.8,31.9 43.8,32 46.3,30.7 46.2,30.3 		"/>
		<polygon class="st0" points="64.6,21.5 64.5,22 67.7,20.4 67.9,19.9 		"/>
		<polygon class="st0" points="50.7,28.2 50.7,28.6 53.5,27.3 53.5,26.8 		"/>
	</g>
	<g>
		<polygon class="st0" points="43.9,32.6 43.9,33 46.5,31.8 46.4,31.4 		"/>
		<polygon class="st0" points="50.7,29.3 50.7,29.8 53.5,28.4 53.5,28 		"/>
		<polygon class="st0" points="36.9,36 37.8,36 38.8,35.5 38.9,35 		"/>
		<polygon class="st0" points="64.2,22.8 64.1,23.3 67.3,21.8 67.5,21.2 		"/>
	</g>
	<g>
		<polygon class="st0" points="44,33.7 44.1,34.1 46.6,32.9 46.6,32.5 		"/>
		<polygon class="st0" points="63.8,24.1 63.7,24.6 66.9,23.1 67.1,22.6 		"/>
		<polygon class="st0" points="50.7,30.5 50.7,30.9 53.5,29.6 53.5,29.1 		"/>
	</g>
	<g>
		<polygon class="st0" points="50.7,31.6 50.7,32 53.5,30.7 53.5,30.3 		"/>
		<polygon class="st0" points="63.5,25.5 63.3,26 66.5,24.4 66.7,23.9 		"/>
		<polygon class="st0" points="46.8,34 46.7,33.5 44.2,34.8 44.2,35.2 		"/>
	</g>
	<g>
		<polygon class="st0" points="46.9,34.6 44.3,35.8 44.4,36 45,36 47,35 		"/>
		<polygon class="st0" points="50.7,32.8 50.7,33.2 53.5,31.9 53.5,31.4 		"/>
		<polygon class="st0" points="63.1,26.8 62.9,27.3 66.1,25.8 66.3,25.3 		"/>
	</g>
	<g>
		<polygon class="st0" points="55.1,33.4 54.1,33.4 50.7,35.1 50.7,35.5 		"/>
		<polygon class="st0" points="62.3,29.5 62.1,30 65.4,28.4 65.5,27.9 		"/>
	</g>
	<g>
		<polygon class="st0" points="47.1,35.7 46.4,36 47.1,36 		"/>
		<polygon class="st0" points="53.5,32.6 50.7,33.9 50.7,34.3 53.5,33 		"/>
		<polygon class="st0" points="62.7,28.1 62.5,28.7 65.7,27.1 65.9,26.6 		"/>
	</g>
	<g>
		<polygon class="st0" points="57.4,33.4 56.5,33.4 51.2,36 52.1,36 		"/>
		<polygon class="st0" points="61.9,30.8 61.7,31.3 65,29.8 65.1,29.3 		"/>
	</g>
	<g>
		<polygon class="st0" points="58.1,34.3 58.1,33.8 53.6,36 54.5,36 		"/>
		<polygon class="st0" points="61.5,32.2 61.3,32.7 64.6,31.1 64.7,30.6 		"/>
	</g>
	<g>
		<polygon class="st0" points="58.1,35.4 58.1,35 56,36 56.9,36 		"/>
		<polygon class="st0" points="61.1,33.5 61.1,33.9 64.2,32.5 64.3,31.9 		"/>
	</g>
	<g>
		<polygon class="st0" points="63.9,33.3 61.1,34.6 61.1,35.1 64.5,33.4 63.9,33.4 		"/>
	</g>
	<g>
		<polygon class="st0" points="61.1,35.8 61.1,36 61.7,36 66.9,33.4 66,33.4 		"/>
	</g>
	<g>
		<polygon class="st0" points="63.1,36 64,36 69.3,33.4 68.4,33.4 		"/>
	</g>
	<g>
		<polygon class="st0" points="65.5,36 66.4,36 69.5,34.5 69.5,34 		"/>
	</g>
	<g>
		<polygon class="st0" points="67.9,36 68.8,36 69.5,35.6 69.5,35.2 		"/>
	</g>
	<g>
		<path class="st0" d="M28.1,14.1c0.1,0,0.2,0,0.3,0l3.1-1.5c-0.1-0.1-0.2-0.2-0.3-0.3l-3.6,1.8H28.1z"/>
		<path class="st0" d="M25.6,15l-2.9,1.4v0.4l2.8-1.3C25.5,15.3,25.5,15.2,25.6,15z"/>
	</g>
	<g>
		<path class="st0" d="M29.6,14.7l2.5-1.2c-0.1-0.1-0.1-0.2-0.2-0.3l-2.6,1.3C29.4,14.4,29.5,14.5,29.6,14.7z"/>
		<polygon class="st0" points="25.4,16.2 22.7,17.6 22.7,18 25.4,16.7 		"/>
	</g>
	<g>
		<path class="st0" d="M29.9,15.7l2.6-1.3c0-0.1-0.1-0.3-0.1-0.4l-2.5,1.2C29.9,15.4,29.9,15.5,29.9,15.7z"/>
		<polygon class="st0" points="25.4,17.4 22.7,18.7 22.7,19.2 25.4,17.8 		"/>
	</g>
	<g>
		<path class="st0" d="M29.9,16.8l2.8-1.3c0-0.1,0-0.3,0-0.4l-2.7,1.3V16.8z"/>
		<polygon class="st0" points="25.4,18.5 22.7,19.9 22.7,20.3 25.4,19 		"/>
	</g>
	<g>
		<polygon class="st0" points="25.4,19.7 22.7,21 22.7,21.5 25.4,20.1 		"/>
		<polygon class="st0" points="29.9,17.5 29.9,17.9 32.7,16.6 32.7,16.2 		"/>
	</g>
	<g>
		<polygon class="st0" points="25.4,20.8 22.7,22.2 22.7,22.6 25.4,21.3 		"/>
		<polygon class="st0" points="29.9,18.7 29.9,19.1 32.7,17.8 32.7,17.3 		"/>
	</g>
	<g>
		<polygon class="st0" points="25.4,22 22.7,23.3 22.7,23.8 25.4,22.4 		"/>
		<polygon class="st0" points="29.9,19.8 29.9,20.2 32.7,18.9 32.7,18.5 		"/>
	</g>
	<g>
		<polygon class="st0" points="25.4,23.1 22.7,24.5 22.7,24.9 25.4,23.6 		"/>
		<polygon class="st0" points="29.9,21 29.9,21.4 32.7,20.1 32.7,19.6 		"/>
	</g>
	<g>
		<polygon class="st0" points="25.4,25.4 22.7,26.8 22.7,27.2 25.4,25.9 		"/>
		<polygon class="st0" points="29.9,23.3 29.9,23.7 32.7,22.4 32.7,21.9 		"/>
	</g>
	<g>
		<polygon class="st0" points="25.4,24.3 22.7,25.6 22.7,26.1 25.4,24.7 		"/>
		<polygon class="st0" points="29.9,22.1 29.9,22.5 32.7,21.2 32.7,20.8 		"/>
	</g>
	<g>
		<polygon class="st0" points="25.4,26.6 22.7,27.9 22.7,28.4 25.4,27 		"/>
		<polygon class="st0" points="29.9,24.4 29.9,24.8 32.7,23.5 32.7,23.1 		"/>
	</g>
	<g>
		<polygon class="st0" points="29.9,25.6 29.9,26 32.7,24.7 32.7,24.2 		"/>
		<polygon class="st0" points="25.4,27.7 22.7,29.1 22.7,29.5 25.4,28.2 		"/>
	</g>
	<g>
		<path class="st0" d="M25.4,30l-2.8,1.3v0.3c0,0,0,0.1,0,0.1l2.8-1.3V30z"/>
		<polygon class="st0" points="29.9,27.8 29.9,28.3 32.7,27 32.7,26.5 		"/>
	</g>
	<g>
		<polygon class="st0" points="29.9,26.7 29.9,27.1 32.7,25.8 32.7,25.4 		"/>
		<polygon class="st0" points="25.4,28.9 22.7,30.2 22.7,30.7 25.4,29.3 		"/>
	</g>
	<g>
		<path class="st0" d="M25.4,31.2l-2.7,1.3c0,0.1,0,0.3,0.1,0.4l2.7-1.3V31.2z"/>
		<polygon class="st0" points="29.9,29 29.9,29.4 32.7,28.1 32.7,27.7 		"/>
	</g>
	<g>
		<path class="st0" d="M25.5,32.3l-2.6,1.2c0,0.1,0.1,0.3,0.1,0.4l2.5-1.2C25.5,32.6,25.5,32.4,25.5,32.3z"/>
		<polygon class="st0" points="29.9,30.1 29.9,30.6 32.7,29.3 32.7,28.8 		"/>
	</g>
	<g>
		<polygon class="st0" points="29.9,31.3 29.9,31.7 32.7,30.4 32.7,30 		"/>
		<path class="st0" d="M25.9,33.2l-2.6,1.2c0.1,0.1,0.2,0.2,0.2,0.3l2.7-1.3C26.2,33.4,26,33.3,25.9,33.2z"/>
	</g>
	<g>
		<path class="st0" d="M29.9,32.5c-0.1,0.2-0.1,0.4-0.2,0.6l3.1-1.5v-0.4L29.9,32.5z"/>
		<path class="st0" d="M28.1,33.7h-0.7L24,35.3c0.1,0.1,0.2,0.2,0.4,0.3l4-1.9C28.3,33.6,28.2,33.7,28.1,33.7z"/>
	</g>
</g>
<g>
	<path class="st1" d="M16.9,43.5l-0.6-1.2h-0.3v1.2h-0.8v-3.2h1.3c0.3,0,0.6,0.1,0.8,0.3c0.2,0.2,0.3,0.4,0.3,0.7
		c0,0.2-0.1,0.4-0.2,0.5c-0.1,0.1-0.2,0.2-0.4,0.3l0.7,1.3H16.9z M16.5,41h-0.4v0.6h0.4c0.1,0,0.2,0,0.2-0.1
		c0.1-0.1,0.1-0.1,0.1-0.2s0-0.2-0.1-0.2C16.7,41.1,16.6,41,16.5,41z"/>
	<path class="st1" d="M18.2,43.5v-3.2h2.2V41H19v0.5h1.2v0.7H19v0.6h1.4v0.7H18.2z"/>
	<path class="st1" d="M21.8,43.6c-0.3,0-0.5,0-0.7-0.1c-0.2-0.1-0.4-0.2-0.5-0.3l0.5-0.5c0.1,0.1,0.2,0.1,0.3,0.2s0.3,0.1,0.4,0.1
		c0.3,0,0.5-0.1,0.5-0.3c0-0.1,0-0.1,0-0.2c0,0-0.1-0.1-0.1-0.1c0,0-0.1,0-0.1,0l-0.4-0.1c-0.3,0-0.5-0.1-0.6-0.3
		c-0.1-0.1-0.2-0.4-0.2-0.6c0-0.3,0.1-0.5,0.3-0.7c0.2-0.2,0.5-0.3,0.9-0.3c0.2,0,0.4,0,0.6,0.1c0.2,0.1,0.3,0.2,0.5,0.3l-0.5,0.5
		c-0.1-0.1-0.1-0.1-0.2-0.1c-0.1,0-0.2,0-0.3,0h-0.1c-0.1,0-0.2,0-0.3,0.1c-0.1,0.1-0.1,0.1-0.1,0.2c0,0,0,0.1,0,0.1c0,0,0,0,0,0.1
		c0,0,0,0,0.1,0.1c0,0,0.1,0,0.1,0l0.4,0.1c0.3,0,0.5,0.1,0.6,0.2c0.1,0.1,0.2,0.2,0.2,0.3c0,0.1,0.1,0.2,0.1,0.4
		c0,0.3-0.1,0.6-0.4,0.7S22.2,43.6,21.8,43.6z"/>
	<path class="st1" d="M25,41v2.5h-0.8V41h-0.8v-0.7h2.4V41H25z"/>
	<path class="st1" d="M28,43.5l-0.1-0.5h-1l-0.2,0.5h-0.8l1.2-3.2h0.6l1.2,3.2H28z M27.4,41.6l-0.3,0.9h0.6L27.4,41.6z"/>
	<path class="st1" d="M30.3,43.6c-0.3,0-0.6-0.1-0.9-0.3c-0.2-0.2-0.3-0.5-0.3-0.8v-2.1h0.8v2.1c0,0.1,0,0.3,0.1,0.3
		c0.1,0.1,0.2,0.1,0.3,0.1c0.1,0,0.2,0,0.3-0.1c0.1-0.1,0.1-0.2,0.1-0.3v-2.1h0.8v2.1c0,0.3-0.1,0.6-0.4,0.8
		C30.9,43.5,30.6,43.6,30.3,43.6z"/>
	<path class="st1" d="M33.7,43.5l-0.6-1.2h-0.3v1.2h-0.8v-3.2h1.3c0.3,0,0.6,0.1,0.8,0.3c0.2,0.2,0.3,0.4,0.3,0.7
		c0,0.2-0.1,0.4-0.2,0.5c-0.1,0.1-0.2,0.2-0.4,0.3l0.7,1.3H33.7z M33.3,41h-0.4v0.6h0.4c0.1,0,0.2,0,0.2-0.1
		c0.1-0.1,0.1-0.1,0.1-0.2s0-0.2-0.1-0.2C33.5,41.1,33.4,41,33.3,41z"/>
	<path class="st1" d="M36.8,43.5l-0.1-0.5h-1l-0.2,0.5h-0.8l1.2-3.2h0.6l1.2,3.2H36.8z M36.2,41.6l-0.3,0.9h0.6L36.2,41.6z"/>
	<path class="st1" d="M39.7,43.5l-1-1.6v1.6h-0.8v-3.2h0.7l1,1.6v-1.6h0.8v3.2H39.7z"/>
	<path class="st1" d="M42.4,41v2.5h-0.8V41h-0.8v-0.7h2.4V41H42.4z"/>
	<path class="st1" d="M46.7,43.2c-0.1,0.1-0.3,0.2-0.4,0.3c-0.2,0.1-0.3,0.1-0.5,0.1c-0.4,0-0.6-0.1-0.8-0.3
		c-0.2-0.2-0.3-0.4-0.3-0.6c0-0.2,0-0.4,0-0.8c0-0.3,0-0.6,0-0.8c0-0.2,0.1-0.3,0.2-0.5s0.3-0.2,0.4-0.3c0.1-0.1,0.3-0.1,0.5-0.1
		c0.4,0,0.7,0.1,0.9,0.3s0.3,0.5,0.4,0.8h-0.8c0-0.1-0.1-0.2-0.2-0.3S45.9,41,45.8,41c-0.1,0-0.1,0-0.2,0c-0.1,0-0.1,0.1-0.1,0.1
		c0,0-0.1,0.1-0.1,0.2c0,0.1,0,0.3,0,0.6c0,0.3,0,0.5,0,0.6c0,0.1,0.1,0.2,0.1,0.3c0.1,0.1,0.2,0.1,0.3,0.1c0.2,0,0.3,0,0.3-0.1
		s0.1-0.1,0.1-0.2c0-0.1,0-0.1,0-0.2v0h-0.5v-0.7H47v0.4c0,0.3,0,0.5-0.1,0.6S46.8,43.1,46.7,43.2z"/>
	<path class="st1" d="M49.2,43.5l-0.6-1.2h-0.3v1.2h-0.8v-3.2h1.3c0.3,0,0.6,0.1,0.8,0.3c0.2,0.2,0.3,0.4,0.3,0.7
		c0,0.2-0.1,0.4-0.2,0.5c-0.1,0.1-0.2,0.2-0.4,0.3l0.7,1.3H49.2z M48.8,41h-0.4v0.6h0.4c0.1,0,0.2,0,0.2-0.1
		c0.1-0.1,0.1-0.1,0.1-0.2s0-0.2-0.1-0.2C49,41.1,48.9,41,48.8,41z"/>
	<path class="st1" d="M52.5,43.2c-0.1,0.1-0.3,0.2-0.4,0.3c-0.1,0.1-0.3,0.1-0.5,0.1c-0.4,0-0.6-0.1-0.8-0.3
		c-0.2-0.2-0.3-0.4-0.3-0.6c0-0.2,0-0.4,0-0.8c0-0.3,0-0.6,0-0.8c0-0.2,0.1-0.3,0.3-0.5c0.1-0.1,0.3-0.2,0.4-0.3
		c0.1-0.1,0.3-0.1,0.5-0.1c0.4,0,0.6,0.1,0.8,0.3s0.3,0.4,0.3,0.6c0,0.2,0,0.4,0,0.8c0,0.3,0,0.6,0,0.8C52.7,42.9,52.6,43,52.5,43.2
		z M51.9,41.2c0,0-0.1-0.1-0.1-0.1s-0.1,0-0.2,0c-0.1,0-0.1,0-0.2,0c-0.1,0-0.1,0.1-0.1,0.1c0,0-0.1,0.1-0.1,0.2c0,0.1,0,0.3,0,0.6
		c0,0.3,0,0.5,0,0.6s0,0.2,0.1,0.2c0,0,0.1,0.1,0.1,0.1c0.1,0,0.1,0,0.2,0c0.1,0,0.2,0,0.3-0.1c0.1-0.1,0.1-0.2,0.1-0.3s0-0.3,0-0.6
		c0-0.3,0-0.4,0-0.6C52,41.3,51.9,41.2,51.9,41.2z"/>
	<path class="st1" d="M54.5,43.6c-0.3,0-0.6-0.1-0.9-0.3c-0.2-0.2-0.3-0.5-0.3-0.8v-2.1h0.8v2.1c0,0.1,0,0.3,0.1,0.3
		c0.1,0.1,0.2,0.1,0.3,0.1c0.1,0,0.2,0,0.3-0.1s0.1-0.2,0.1-0.3v-2.1h0.8v2.1c0,0.3-0.1,0.6-0.4,0.8C55.1,43.5,54.8,43.6,54.5,43.6z
		"/>
	<path class="st1" d="M57.6,42.4h-0.5v1.1h-0.8v-3.2h1.3c0.3,0,0.6,0.1,0.8,0.3s0.3,0.4,0.3,0.7c0,0.3-0.1,0.5-0.3,0.7
		C58.2,42.3,57.9,42.4,57.6,42.4z M57.5,41h-0.4v0.6h0.4c0.1,0,0.2,0,0.2-0.1s0.1-0.1,0.1-0.2s0-0.2-0.1-0.2S57.6,41,57.5,41z"/>
	<path class="st1" d="M59,44.3v-1.6h0.8v1L59,44.3z"/>
	<path class="st1" d="M61.4,43.5v-3.2h0.8v2.5h1.3v0.7H61.4z"/>
	<path class="st1" d="M64,43.5v-3.2h0.8v2.5h1.3v0.7H64z"/>
	<path class="st1" d="M67.6,43.6c-0.4,0-0.6-0.1-0.8-0.3c-0.2-0.2-0.3-0.4-0.3-0.6c0-0.2,0-0.4,0-0.8c0-0.3,0-0.6,0-0.8
		c0-0.2,0.1-0.3,0.2-0.5c0.1-0.1,0.3-0.2,0.4-0.3c0.1-0.1,0.3-0.1,0.5-0.1c0.3,0,0.6,0.1,0.8,0.3c0.2,0.2,0.4,0.4,0.4,0.8h-0.8
		c0-0.1-0.1-0.2-0.1-0.3C67.9,41,67.8,41,67.7,41c-0.1,0-0.1,0-0.2,0c-0.1,0-0.1,0.1-0.1,0.1s-0.1,0.1-0.1,0.2c0,0.1,0,0.3,0,0.6
		c0,0.3,0,0.5,0,0.6c0,0.1,0.1,0.2,0.1,0.3c0.1,0.1,0.2,0.1,0.3,0.1c0.1,0,0.2,0,0.3-0.1c0.1-0.1,0.1-0.1,0.1-0.2h0.8
		c-0.1,0.3-0.2,0.6-0.4,0.7C68.2,43.5,68,43.6,67.6,43.6z"/>
</g>
<path class="st3" d="M16.1,34.9h-1c-3.3,0-5-1.7-5-5V14.3c0-3.3,1.7-5,5-5h1c3.3,0,4.9,1.7,4.9,4.9V18h-3.7v-3.9
	c0-1-0.4-1.3-1.3-1.3h-0.8c-1,0-1.3,0.4-1.3,1.3V30c0,1,0.4,1.3,1.3,1.3H16c1,0,1.3-0.4,1.3-1.3v-5.7h-2.2v-3.5h6v9.1
	C21.1,33.2,19.4,34.9,16.1,34.9z M15,9.6c-3.1,0-4.7,1.6-4.7,4.7v15.6c0,3.1,1.6,4.7,4.7,4.7h1c3.1,0,4.7-1.6,4.7-4.7v-8.8h-5.3V24
	h2.2v6c0,1.1-0.5,1.6-1.6,1.6h-0.9c-1.1,0-1.6-0.5-1.6-1.6V14.1c0-1.1,0.5-1.6,1.6-1.6H16c1.1,0,1.6,0.5,1.6,1.6v3.6h3.1v-3.5
	c0-3.1-1.6-4.6-4.6-4.6H15z"/>
<path class="st3" d="M30.2,12.5h-0.8c-1.1,0-1.6,0.5-1.6,1.6V30c0,1.1,0.5,1.6,1.6,1.6h0.8c1.1,0,1.6-0.5,1.6-1.6V14.1
	C31.8,13,31.3,12.5,30.2,12.5z M31.5,30c0,1-0.4,1.3-1.3,1.3h-0.8c-1,0-1.3-0.4-1.3-1.3V14.1c0-1,0.4-1.3,1.3-1.3h0.8
	c1,0,1.3,0.4,1.3,1.3V30z"/>
<path class="st3" d="M30.3,9.3h-1c-3.3,0-5,1.7-5,5v15.6c0,3.3,1.7,5,5,5h1c3.3,0,5-1.7,5-5V14.3C35.3,10.9,33.6,9.3,30.3,9.3z
	 M35,29.9c0,3.1-1.6,4.7-4.7,4.7h-1c-3.1,0-4.7-1.6-4.7-4.7V14.3c0-3.1,1.6-4.7,4.7-4.7h1c3.1,0,4.7,1.6,4.7,4.7V29.9z"/>
<path class="st3" d="M49.8,34.7H46l-0.6-4.1h-3.6l-0.6,4.1h-3.7l3.9-25.3h4.4l0,0.1L49.8,34.7z M46.3,34.4h3.1L45.6,9.7h-3.8
	l-3.8,24.7h3l0.6-4.1h4.1L46.3,34.4z M45.3,27.5h-3.3l1.7-11.9L45.3,27.5z M42.3,27.2h2.6l-1.3-9.3L42.3,27.2z"/>
<path class="st3" d="M60.6,34.7h-8.3V9.5h3.8v21.7h4.6V34.7z M52.6,34.4h7.7v-2.9h-4.6V9.8h-3.1V34.4z"/>
<path class="st3" d="M72.1,34.7h-9.4v-3.1l0,0L68.1,13h-5.3V9.5h9.2v3.1l0,0l-5.4,18.6h5.4V34.7z M63,34.4h8.7v-2.9h-5.5l0.1-0.2
	l5.5-18.8V9.8h-8.6v2.9h5.4l-5.5,19V34.4z"/>
<path class="st0" d="M15,9.6c-3.1,0-4.7,1.6-4.7,4.7v15.6c0,3.1,1.6,4.7,4.7,4.7h1c3.1,0,4.7-1.6,4.7-4.7v-8.8h-5.3V24h2.2v6
	c0,1.1-0.5,1.6-1.6,1.6h-0.9c-1.1,0-1.6-0.5-1.6-1.6V14.1c0-1.1,0.5-1.6,1.6-1.6H16c1.1,0,1.6,0.5,1.6,1.6v3.6h3.1v-3.5
	c0-3.1-1.6-4.6-4.6-4.6H15z"/>
<path class="st0" d="M30.3,9.6h-1c-3.1,0-4.7,1.6-4.7,4.7v15.6c0,3.1,1.6,4.7,4.7,4.7h1c3.1,0,4.7-1.6,4.7-4.7V14.3
	C35,11.2,33.4,9.6,30.3,9.6z M31.8,30c0,1.1-0.5,1.6-1.6,1.6h-0.8c-1.1,0-1.6-0.5-1.6-1.6V14.1c0-1.1,0.5-1.6,1.6-1.6h0.8
	c1.1,0,1.6,0.5,1.6,1.6V30z"/>
<path class="st0" d="M45.6,9.7h-3.8l-3.8,24.7h3l0.6-4.1h4.1l0.6,4.1h3.1L45.6,9.7z M41.9,27.5l1.7-11.9l1.7,11.9H41.9z"/>
<polygon class="st0" points="52.6,34.4 60.3,34.4 60.3,31.5 55.8,31.5 55.8,9.8 52.6,9.8 "/>
<polygon class="st0" points="63,34.4 71.8,34.4 71.8,31.5 66.2,31.5 66.3,31.3 71.8,12.5 71.8,9.8 63.2,9.8 63.2,12.7 68.6,12.7 
	63,31.6 "/>
<g>
	<path class="st0" d="M73.5,10H73V9.8h1.2V10h-0.5v1.3h-0.3V10z M75.9,10L75.9,10l-0.5,1.3h-0.2L74.7,10h0v1.3h-0.3V9.8h0.4l0.4,1.1
		l0.4-1.1h0.4v1.5h-0.3V10z"/>
</g>
</svg>
